<?xml version="1.0" encoding="UTF-8"?>
<!DOCTYPE svg PUBLIC "-//W3C//DTD SVG 1.1//EN" "http://www.w3.org/Graphics/SVG/1.1/DTD/svg11.dtd">
<!-- Creator: CorelDRAW -->
<svg xmlns="http://www.w3.org/2000/svg" xml:space="preserve" width="72.5519mm" height="18.6391mm" version="1.1" style="shape-rendering:geometricPrecision; text-rendering:geometricPrecision; image-rendering:optimizeQuality; fill-rule:evenodd; clip-rule:evenodd"
viewBox="0 0 7285.61 1871.72"
 xmlns:xlink="http://www.w3.org/1999/xlink"
 xmlns:xodm="http://www.corel.com/coreldraw/odm/2003">
 <defs>
  <style type="text/css">
   <![CDATA[
    .fil1 {fill:#B4B6B8;fill-rule:nonzero}
    .fil2 {fill:#CCCCCC;fill-rule:nonzero}
    .fil0 {fill:white;fill-rule:nonzero}
   ]]>
  </style>
 </defs>
 <g id="Layer_x0020_1">
  <metadata id="CorelCorpID_0Corel-Layer"/>
  <g id="_3131003248384">
   <path class="fil0" d="M24.13 19.97c106.2,0 212.41,-1.21 318.61,-3.37 95.13,128.75 185.9,260.65 281.62,389 85.24,-132.31 180.56,-257.69 271.15,-386.24 105.59,0.2 210.99,0.4 316.61,-0.19 -138.64,193.02 -283,381.88 -425,572.35 67.04,95.11 128.95,194.39 206.47,281.61 45.1,49.24 104.62,92.75 174.64,91.76 102.13,3.87 188.08,0.73 290.39,1.71l0 229.92c-128.73,3.55 -241.41,0.16 -370.11,-0.25 -95.92,3.57 -188.87,-39.75 -255.71,-106.98 -82.28,-89.6 -146.34,-194.01 -210.43,-296.85 -97.11,133.89 -193.02,268.38 -285.98,405.22 -112.12,-0.19 -224.26,-1.4 -336.39,1.17 152.87,-197.35 300.42,-398.89 447.36,-601 -140.02,-193.42 -284.19,-383.67 -423.23,-577.86z"/>
   <path class="fil0" d="M1633.95 18.38c201.72,-39.36 420.46,-13.44 594.88,99.89 -34,70.2 -69.82,139.61 -100.07,211.4 -131.31,-81.28 -292.3,-118.87 -444.38,-84.46 -55.96,14.44 -109.77,72.79 -88.01,133.32 23.92,59.13 91.76,76.73 147.33,92.74 148.14,42.12 315.04,56.56 434.5,164.16 88.99,77.52 105.02,210.02 75.34,318.99 -34.41,109.76 -131.32,190.45 -237.31,228.03 -137.59,44.42 -284.46,31.32 -426.07,19.74l0 -234.6c116.02,7.46 241.43,41.18 350.72,-13.38 73.75,-40.35 52.4,-157.01 -24.74,-180.36 -161.56,-64.48 -350.43,-63.68 -493.02,-173.84 -114.13,-85.04 -131.72,-253.53 -73.78,-376.54 52.01,-111.73 168.69,-177.79 284.59,-205.09z"/>
   <path class="fil0" d="M4094.74 829.05c0.11,44.9 0.41,89.78 1.02,134.66 148.52,-7.35 315.82,32.43 445.94,-60.52 184.35,-128.94 193.24,-434.09 18.81,-575.32 -128.74,-112.5 -311.11,-66.25 -466.53,-75.94 -0.41,48.44 -0.61,96.93 -0.79,145.37 -89.78,0.21 -179.57,0.57 -269.35,0.21 1.78,-126.79 -1.18,-253.37 1.59,-379.93 175,2.59 350.23,0.59 525.27,1 158.58,0.38 319.18,56.16 436.46,164.33 218.14,204.91 234.94,584.42 37.37,808.68 -102.66,130.51 -270.34,194.62 -432.3,203.29 -188.87,2.57 -377.54,2.98 -566.2,2.98 -1.68,-122.96 -1.73,-245.93 -1.08,-368.81l269.81 0z"/>
   <path class="fil0" d="M6036.05 26.88c124.2,-22.35 251.95,-2.57 377.54,-11.28 -76.14,65.66 -135.67,149.72 -163.55,247.21 -116.88,-0.2 -233.77,2.77 -350.25,-2.77 -9.09,-96.31 32.64,-209.23 136.27,-233.16z"/>
   <path class="fil0" d="M6357.61 262.43c45.29,-149.72 199.75,-232.77 346.09,-253.15 185.31,-24.91 386.63,3.36 542.47,112.13 -28.87,71.4 -67.83,138.25 -98.49,209.04 -130.12,-77.92 -287.94,-121.82 -438.05,-84.44 -56.16,15.63 -110.55,70.4 -90.58,132.89 24.33,60.52 93.74,78.52 150.5,94.93 142.6,40.35 301.2,56.38 419.27,154.67 116.88,99.87 124.4,289.73 41.33,413.33 -75.35,104.23 -203.11,154.26 -327.11,168.9 -206.47,22.54 -422.03,-25.51 -592.51,-146.35 35.4,-71 73.38,-140.81 109.37,-211.41 134.48,90.19 297.83,153.47 462.18,126.97 56.37,-7.12 118.26,-43.11 123.01,-105.41 -1.39,-59.14 -55.18,-98.29 -106.8,-113.71 -147.93,-46.27 -310.09,-61.9 -441.41,-150.5 -109.37,-75.15 -145.76,-226.45 -99.28,-347.87z"/>
   <path class="fil0" d="M5112.88 596.84c2.57,-192.83 -2.97,-385.64 0.59,-578.47 89.39,0.59 178.78,0.39 268.17,-0.39 0.79,186.3 1.39,372.59 -2.57,558.88 3.36,105.61 -7.91,225.26 63.49,313.07 74.56,99.08 220.9,108.37 327.5,61.12 83.26,-36.98 125.79,-129.54 129.93,-216.36 7.32,-119.65 2.38,-239.69 5.53,-359.34 89.2,-0.79 178.59,-1.39 267.98,-0.98 -9.69,194 32.04,402.45 -58.74,583.2 -60.71,124.01 -177.2,221.7 -315.64,243.26 -197.56,39.35 -436.86,12.65 -571.74,-152.87 -102.85,-125.79 -122.62,-294.28 -114.51,-451.11z"/>
   <path class="fil1" d="M2741.46 55.36c263.81,-112.53 605.17,-53.38 788.1,176.41 40.16,49.24 67.04,107 93.13,164.36 -98.29,1.98 -197.33,-2.37 -294.67,13.62 -102.23,-169.47 -342.33,-221.48 -507.26,-114.89 -200.13,126.79 -214.59,450.9 -34.02,600.82 157.63,136.65 433.53,101.84 540.53,-81.87 64.82,-82.67 27.25,-209.04 108.75,-281.22 42.92,-43.53 107.39,-41.14 163.74,-41.53 406.26,1.98 536.34,1.69 592.13,1.85 0.65,-50.51 0.86,-100.82 1.48,-150.92 115.41,81.24 220.57,175.93 333.41,260.74 -111.98,89.24 -215.27,182.25 -331.52,266.03 1.06,-49.67 -3.14,-99.1 -1.67,-148.59 -182.56,-0.68 -364.52,1.48 -547.35,-0.88 -30.86,129.74 -87.83,258.48 -192.62,345.1 -182.36,158.6 -451.91,188.67 -676.18,112.73 -255.69,-89.97 -428.55,-368.62 -390.97,-637.77 17.59,-211.04 163.14,-399.5 354.99,-483.96z"/>
   <path class="fil2" d="M550.88 1864.1l108.4 -309.13 84.28 0 111.8 309.13 -52.51 0 -97.83 -275.27 20.76 9.76 -51.23 0 22.01 -9.76 -94.86 275.27 -50.82 0zm70.29 -87.23l16.1 -44.05 129.58 0 16.51 44.05 -162.19 0zm286.28 87.23l0 -309.13 50.82 0 0 309.13 -50.82 0zm271.03 1.69l0 -46.99 70.73 0c17.22,0 32.6,-2.75 46.14,-8.27 13.56,-5.5 25.13,-13.2 34.74,-23.07 9.59,-9.89 16.87,-21.53 21.8,-34.96 4.96,-13.4 7.42,-27.88 7.42,-43.39 0,-16.67 -2.46,-31.63 -7.42,-44.89 -4.93,-13.29 -12.21,-24.7 -21.8,-34.29 -9.6,-9.6 -21.18,-17.01 -34.74,-22.24 -13.55,-5.23 -28.92,-7.84 -46.14,-7.84l-70.73 0 0 -46.99 66.48 0c27.95,0 52.31,4.23 73.07,12.68 20.75,8.49 38.03,19.9 51.88,34.3 13.83,14.41 24.13,30.63 30.91,48.71 6.78,18.06 10.16,36.7 10.16,55.89l0 9.33c0,18.06 -3.38,36.2 -10.16,54.4 -6.78,18.22 -17.08,34.58 -30.91,49.12 -13.85,14.56 -31.13,26.27 -51.88,35.17 -20.76,8.89 -45.12,13.33 -73.07,13.33l-66.48 0zm-42.35 0l0 -312.93 50.81 0 0 312.93 -50.81 0zm466.24 -1.69l0 -68.17 -8.05 0 0 -77.07c0,-14.13 -3.67,-24.83 -11.01,-32.18 -7.32,-7.34 -18.2,-11.01 -32.62,-11.01 -7.89,0 -16.64,0.14 -26.24,0.41 -9.6,0.29 -18.99,0.63 -28.16,1.06 -9.19,0.41 -17.3,0.91 -24.35,1.48l0 -42.77c6.21,-0.57 13.05,-1.05 20.54,-1.49 7.48,-0.43 15.23,-0.77 23.29,-1.04 8.04,-0.29 15.74,-0.43 23.08,-0.43 23.16,0 42.35,2.96 57.61,8.9 15.23,5.93 26.61,15.3 34.09,28.15 7.45,12.85 11.21,30 11.21,51.46l0 142.71 -39.38 0zm-74.1 5.93c-16.67,0 -31.2,-2.91 -43.61,-8.69 -12.44,-5.79 -22.04,-14.26 -28.82,-25.4 -6.78,-11.17 -10.16,-24.5 -10.16,-40.03 0,-16.38 3.89,-29.93 11.67,-40.67 7.75,-10.7 18.83,-18.76 33.22,-24.12 14.4,-5.37 31.64,-8.05 51.68,-8.05l57.17 0 0 32.61 -58.44 0c-14.96,0 -26.4,3.6 -34.29,10.81 -7.91,7.19 -11.87,16.58 -11.87,28.16 0,11.58 3.96,20.83 11.87,27.75 7.89,6.91 19.33,10.36 34.29,10.36 8.76,0 17.08,-1.61 24.99,-4.86 7.89,-3.25 14.46,-8.69 19.69,-16.31 5.21,-7.62 8.12,-18.36 8.67,-32.17l12.71 16.51c-1.41,16.1 -5.3,29.56 -11.65,40.43 -6.34,10.88 -15.09,19.2 -26.26,24.99 -11.15,5.77 -24.77,8.69 -40.85,8.69zm276.11 -3.38c-18.92,0 -34.87,-2.55 -47.87,-7.62 -12.98,-5.09 -22.8,-13.85 -29.43,-26.27 -6.62,-12.41 -9.93,-29.22 -9.93,-50.39l0 -213 47.01 0 0 217.23c0,11.87 3.15,20.97 9.53,27.31 6.34,6.37 15.3,9.53 26.87,9.53l38.12 0 0 43.21 -34.29 0zm-124.94 -193.97l0 -36.83 159.23 0 0 36.83 -159.23 0zm349.79 191.42l0 -68.17 -8.05 0 0 -77.07c0,-14.13 -3.66,-24.83 -11.01,-32.18 -7.32,-7.34 -18.2,-11.01 -32.62,-11.01 -7.88,0 -16.64,0.14 -26.24,0.41 -9.6,0.29 -18.99,0.63 -28.16,1.06 -9.19,0.41 -17.3,0.91 -24.35,1.48l0 -42.77c6.21,-0.57 13.05,-1.05 20.54,-1.49 7.48,-0.43 15.23,-0.77 23.29,-1.04 8.05,-0.29 15.74,-0.43 23.09,-0.43 23.15,0 42.34,2.96 57.6,8.9 15.23,5.93 26.61,15.3 34.09,28.15 7.46,12.85 11.21,30 11.21,51.46l0 142.71 -39.38 0zm-74.1 5.93c-16.67,0 -31.2,-2.91 -43.61,-8.69 -12.44,-5.79 -22.04,-14.26 -28.82,-25.4 -6.77,-11.17 -10.16,-24.5 -10.16,-40.03 0,-16.38 3.89,-29.93 11.67,-40.67 7.75,-10.7 18.83,-18.76 33.23,-24.12 14.39,-5.37 31.63,-8.05 51.67,-8.05l57.17 0 0 32.61 -58.44 0c-14.96,0 -26.4,3.6 -34.29,10.81 -7.91,7.19 -11.87,16.58 -11.87,28.16 0,11.58 3.96,20.83 11.87,27.75 7.89,6.91 19.33,10.36 34.29,10.36 8.76,0 17.08,-1.61 24.99,-4.86 7.89,-3.25 14.46,-8.69 19.69,-16.31 5.21,-7.62 8.12,-18.36 8.67,-32.17l12.71 16.51c-1.41,16.1 -5.3,29.56 -11.64,40.43 -6.35,10.88 -15.1,19.2 -26.27,24.99 -11.15,5.77 -24.76,8.69 -40.85,8.69zm332.42 -5.93l-80.87 -309.13 52.51 0 68.18 275.68 -18.22 -10.16 46.16 0 -19.89 10.16 54.62 -263.4 44.88 0 -64.79 296.85 -82.58 0zm185.48 0l-71.14 -296.85 47.01 0 62.25 263.4 -19.47 -10.16 46.14 0 -19.05 10.16 60.55 -275.68 49.99 0 -72.84 309.13 -83.44 0zm336.68 0l0 -68.17 -8.05 0 0 -77.07c0,-14.13 -3.67,-24.83 -11.01,-32.18 -7.32,-7.34 -18.2,-11.01 -32.62,-11.01 -7.89,0 -16.64,0.14 -26.24,0.41 -9.6,0.29 -18.99,0.63 -28.16,1.06 -9.19,0.41 -17.3,0.91 -24.35,1.48l0 -42.77c6.21,-0.57 13.05,-1.05 20.54,-1.49 7.48,-0.43 15.23,-0.77 23.29,-1.04 8.04,-0.29 15.74,-0.43 23.08,-0.43 23.16,0 42.35,2.96 57.61,8.9 15.23,5.93 26.61,15.3 34.09,28.15 7.45,12.85 11.21,30 11.21,51.46l0 142.71 -39.38 0zm-74.1 5.93c-16.67,0 -31.2,-2.91 -43.61,-8.69 -12.44,-5.79 -22.04,-14.26 -28.82,-25.4 -6.78,-11.17 -10.16,-24.5 -10.16,-40.03 0,-16.38 3.89,-29.93 11.67,-40.67 7.75,-10.7 18.83,-18.76 33.22,-24.12 14.4,-5.37 31.64,-8.05 51.68,-8.05l57.17 0 0 32.61 -58.44 0c-14.96,0 -26.4,3.6 -34.29,10.81 -7.91,7.19 -11.87,16.58 -11.87,28.16 0,11.58 3.96,20.83 11.87,27.75 7.89,6.91 19.33,10.36 34.29,10.36 8.76,0 17.08,-1.61 24.99,-4.86 7.89,-3.25 14.46,-8.69 19.69,-16.31 5.21,-7.62 8.12,-18.36 8.67,-32.17l12.71 16.51c-1.41,16.1 -5.3,29.56 -11.65,40.43 -6.34,10.88 -15.09,19.2 -26.26,24.99 -11.15,5.77 -24.77,8.69 -40.85,8.69zm182.5 -5.93l0 -228.25 39.39 0 0 95.29 -1.69 0c0,-32.76 7.19,-57.25 21.58,-73.49 14.4,-16.24 35.73,-24.33 63.96,-24.33l8.04 0 0 43.62 -15.23 0c-21.47,0 -37.91,5.7 -49.35,17.14 -11.44,11.42 -17.15,27.73 -17.15,48.89l0 121.13 -49.56 0zm272.73 7.62c-19.76,0 -36.98,-3.39 -51.66,-10.16 -14.69,-6.78 -26.69,-15.75 -36,-26.88 -9.32,-11.17 -16.3,-23.72 -20.97,-37.69 -4.66,-13.99 -6.98,-28.31 -6.98,-42.98l0 -8.05c0,-14.96 2.32,-29.42 6.98,-43.41 4.67,-13.97 11.65,-26.54 20.97,-37.69 9.31,-11.17 21.11,-20.05 35.37,-26.67 14.26,-6.64 30.84,-9.96 49.76,-9.96 24.56,0 45.03,5.36 61.41,16.1 16.37,10.71 28.65,24.63 36.84,41.71 8.18,17.07 12.28,35.5 12.28,55.26l0 19.9 -202.43 0 0 -33.46 168.97 0 -13.56 16.94c0,-15.23 -2.41,-28.45 -7.2,-39.59 -4.8,-11.17 -11.85,-19.76 -21.18,-25.84 -9.32,-6.08 -21.04,-9.1 -35.14,-9.1 -14.69,0 -26.97,3.38 -36.84,10.14 -9.89,6.78 -17.23,16.1 -22.03,27.95 -4.8,11.87 -7.19,25.84 -7.19,41.94 0,15.24 2.39,28.86 7.19,40.87 4.8,11.99 12.28,21.45 22.44,28.36 10.16,6.94 23.16,10.39 38.96,10.39 15.83,0 28.81,-3.45 38.95,-10.39 10.16,-6.91 16.38,-15.03 18.65,-24.33l46.14 0c-3.09,15.53 -9.37,29.06 -18.83,40.64 -9.46,11.58 -21.4,20.47 -35.8,26.7 -14.39,6.21 -30.77,9.3 -49.12,9.3zm161.35 -7.62l0 -309.13 49.55 0 0 182.5 -10.16 0c0,-22.57 2.89,-41.98 8.69,-58.21 5.77,-16.24 14.67,-28.66 26.68,-37.28 12,-8.6 27.17,-12.91 45.52,-12.91l2.12 0c26.81,0 47.08,9.05 60.76,27.1 13.7,18.09 20.54,44.05 20.54,77.92l0 130.01 -49.55 0 0 -137.2c0,-16.37 -4.71,-29.29 -14.17,-38.75 -9.46,-9.46 -21.68,-14.19 -36.64,-14.19 -16.1,0 -29.08,5.37 -38.95,16.11 -9.89,10.72 -14.83,24.83 -14.83,42.34l0 131.7 -49.55 0zm379.88 7.62c-20.06,0 -37.71,-3.32 -52.94,-9.94 -15.24,-6.64 -28.09,-15.46 -38.55,-26.47 -10.43,-11.01 -18.36,-23.52 -23.7,-37.48 -5.36,-13.99 -8.04,-28.45 -8.04,-43.41l0 -8.47c0,-14.96 2.75,-29.51 8.25,-43.62 5.5,-14.12 13.55,-26.74 24.12,-37.91 10.6,-11.14 23.52,-19.96 38.76,-26.47 15.23,-6.48 32.61,-9.73 52.1,-9.73 19.46,0 36.75,3.25 51.88,9.73 15.09,6.51 28.02,15.33 38.72,26.47 10.73,11.17 18.86,23.79 24.36,37.91 5.5,14.11 8.25,28.66 8.25,43.62l0 8.47c0,14.96 -2.68,29.42 -8.05,43.41 -5.34,13.96 -13.26,26.47 -23.7,37.48 -10.45,11.01 -23.29,19.83 -38.54,26.47 -15.24,6.62 -32.89,9.94 -52.92,9.94zm0 -43.19c15.5,0 28.79,-3.45 39.8,-10.36 11.01,-6.94 19.4,-16.31 25.2,-28.18 5.78,-11.85 8.69,-25.13 8.69,-39.81 0,-14.96 -2.97,-28.38 -8.89,-40.23 -5.93,-11.85 -14.42,-21.24 -25.43,-28.16 -11.01,-6.91 -24.13,-10.38 -39.36,-10.38 -15.26,0 -28.38,3.47 -39.39,10.38 -11.01,6.92 -19.48,16.31 -25.4,28.16 -5.93,11.85 -8.92,25.27 -8.92,40.23 0,14.67 2.91,27.96 8.69,39.81 5.8,11.87 14.19,21.24 25.2,28.18 11.02,6.91 24.29,10.36 39.83,10.36zm258.3 42.35c-26.81,0 -47.42,-8.69 -61.81,-26.04 -14.4,-17.37 -21.61,-42.98 -21.61,-76.87l0 -132.12 49.56 0 0 138.9c0,15.81 4.37,28.3 13.12,37.48 8.76,9.17 20.61,13.77 35.57,13.77 15.23,0 27.75,-4.87 37.48,-14.6 9.73,-9.76 14.6,-23.09 14.6,-40.03l0 -135.52 49.56 0 0 228.25 -39.39 0 0 -97.4 5.1 0c0,22.88 -3.05,42 -9.13,57.37 -6.05,15.4 -14.96,27.04 -26.67,34.96 -11.71,7.89 -26.47,11.85 -44.25,11.85l-2.12 0zm268.92 0c-30.77,0 -54.69,-6.51 -71.77,-19.49 -17.08,-12.98 -26.07,-30.9 -26.9,-53.75l45.73 0c0.57,8.46 4.96,16.21 13.14,23.29 8.18,7.05 21.58,10.57 40.23,10.57 15.81,0 28.23,-3.09 37.26,-9.31 9.03,-6.23 13.56,-13.98 13.56,-23.31 0,-8.46 -3.32,-15.16 -9.96,-20.1 -6.62,-4.93 -17.85,-8.25 -33.66,-9.96l-22.44 -2.11c-23.43,-2.55 -41.99,-9.47 -55.67,-20.75 -13.72,-11.3 -20.57,-26.54 -20.57,-45.73 0,-15.26 3.83,-28.11 11.44,-38.55 7.62,-10.43 18.16,-18.49 31.55,-24.13 13.42,-5.66 28.88,-8.48 46.36,-8.48 27.11,0 48.98,6.01 65.65,18.01 16.65,11.99 25.28,29.56 25.84,52.72l-45.32 0c-0.57,-8.76 -4.67,-16.11 -12.28,-22.01 -7.62,-5.93 -18.93,-8.9 -33.89,-8.9 -14.1,0 -24.9,2.82 -32.39,8.47 -7.48,5.63 -11.23,12.84 -11.23,21.6 0,7.89 2.84,14.12 8.48,18.63 5.64,4.53 14.83,7.48 27.52,8.89l22.44 2.12c25.7,2.82 46.09,9.96 61.2,21.4 15.1,11.42 22.65,27.31 22.65,47.65 0,14.66 -4.1,27.51 -12.28,38.52 -8.18,11.01 -19.56,19.56 -34.09,25.63 -14.53,6.06 -31.4,9.1 -50.6,9.1zm250.69 0.84c-19.76,0 -36.98,-3.39 -51.65,-10.16 -14.69,-6.78 -26.7,-15.75 -36,-26.88 -9.33,-11.17 -16.31,-23.72 -20.97,-37.69 -4.67,-13.99 -6.99,-28.31 -6.99,-42.98l0 -8.05c0,-14.96 2.32,-29.42 6.99,-43.41 4.66,-13.97 11.64,-26.54 20.97,-37.69 9.3,-11.17 21.1,-20.05 35.36,-26.67 14.26,-6.64 30.84,-9.96 49.76,-9.96 24.56,0 45.04,5.36 61.41,16.1 16.38,10.71 28.66,24.63 36.84,41.71 8.18,17.07 12.28,35.5 12.28,55.26l0 19.9 -202.43 0 0 -33.46 168.97 0 -13.55 16.94c0,-15.23 -2.41,-28.45 -7.21,-39.59 -4.8,-11.17 -11.85,-19.76 -21.18,-25.84 -9.32,-6.08 -21.03,-9.1 -35.14,-9.1 -14.69,0 -26.96,3.38 -36.83,10.14 -9.89,6.78 -17.24,16.1 -22.04,27.95 -4.8,11.87 -7.18,25.84 -7.18,41.94 0,15.24 2.38,28.86 7.18,40.87 4.8,11.99 12.28,21.45 22.44,28.36 10.17,6.94 23.16,10.39 38.96,10.39 15.83,0 28.81,-3.45 38.95,-10.39 10.17,-6.91 16.38,-15.03 18.65,-24.33l46.14 0c-3.09,15.53 -9.37,29.06 -18.83,40.64 -9.46,11.58 -21.4,20.47 -35.79,26.7 -14.4,6.21 -30.78,9.3 -49.13,9.3zm363.37 0c-26.54,0 -49.05,-4.3 -67.54,-12.91 -18.49,-8.61 -32.55,-20.48 -42.15,-35.57 -9.59,-15.1 -14.39,-32.25 -14.39,-51.44l49.96 0c0,8.73 2.41,17.35 7.21,25.84 4.8,8.46 12.55,15.43 23.29,20.94 10.73,5.5 25.27,8.25 43.62,8.25 16.65,0 30.41,-2.38 41.27,-7.18 10.88,-4.8 18.93,-11.17 24.16,-19.06 5.2,-7.91 7.82,-16.67 7.82,-26.27 0,-11.85 -5.07,-21.51 -15.24,-28.99 -10.16,-7.48 -25.4,-12.08 -45.73,-13.76l-30.93 -2.98c-28.5,-2.25 -51.23,-11.08 -68.18,-26.47 -16.92,-15.37 -25.4,-35.64 -25.4,-60.76 0,-19.2 4.59,-35.85 13.76,-49.97 9.19,-14.12 22.1,-25.2 38.75,-33.25 16.67,-8.02 36,-12.05 58.01,-12.05 22.58,0 42.21,4.03 58.88,12.05 16.65,8.05 29.57,19.35 38.73,33.88 9.19,14.54 13.79,31.84 13.79,51.88l-49.99 0c0,-9.03 -2.19,-17.57 -6.55,-25.61 -4.4,-8.04 -11.11,-14.62 -20.13,-19.69 -9.03,-5.09 -20.6,-7.64 -34.72,-7.64 -13.56,0 -24.76,2.41 -33.66,7.21 -8.89,4.8 -15.6,11.01 -20.12,18.63 -4.5,7.64 -6.78,15.83 -6.78,24.56 0,10.45 3.96,19.69 11.87,27.75 7.89,8.04 20.04,12.77 36.41,14.19l30.5 2.54c21.74,1.69 40.57,6.28 56.54,13.76 15.95,7.49 28.36,17.42 37.28,29.86 8.9,12.42 13.33,27.38 13.33,44.87 0,19.2 -5.14,36.14 -15.46,50.83 -10.3,14.67 -24.69,26.11 -43.19,34.29 -18.49,8.18 -40.16,12.28 -64.99,12.28zm287.98 0c-20.06,0 -37.71,-3.32 -52.94,-9.94 -15.24,-6.64 -28.09,-15.46 -38.55,-26.47 -10.44,-11.01 -18.36,-23.52 -23.7,-37.48 -5.36,-13.99 -8.05,-28.45 -8.05,-43.41l0 -8.47c0,-14.96 2.75,-29.51 8.25,-43.62 5.51,-14.12 13.56,-26.74 24.13,-37.91 10.6,-11.14 23.52,-19.96 38.75,-26.47 15.24,-6.48 32.62,-9.73 52.11,-9.73 19.46,0 36.74,3.25 51.88,9.73 15.09,6.51 28.02,15.33 38.72,26.47 10.73,11.17 18.86,23.79 24.36,37.91 5.5,14.11 8.25,28.66 8.25,43.62l0 8.47c0,14.96 -2.68,29.42 -8.05,43.41 -5.34,13.96 -13.26,26.47 -23.7,37.48 -10.45,11.01 -23.29,19.83 -38.54,26.47 -15.24,6.62 -32.89,9.94 -52.92,9.94zm0 -43.19c15.5,0 28.79,-3.45 39.8,-10.36 11.01,-6.94 19.4,-16.31 25.2,-28.18 5.77,-11.85 8.69,-25.13 8.69,-39.81 0,-14.96 -2.97,-28.38 -8.89,-40.23 -5.93,-11.85 -14.42,-21.24 -25.43,-28.16 -11.01,-6.91 -24.13,-10.38 -39.36,-10.38 -15.26,0 -28.39,3.47 -39.39,10.38 -11.01,6.92 -19.49,16.31 -25.4,28.16 -5.93,11.85 -8.92,25.27 -8.92,40.23 0,14.67 2.91,27.96 8.69,39.81 5.8,11.87 14.19,21.24 25.2,28.18 11.01,6.91 24.29,10.36 39.83,10.36zm182.5 35.57l0 -309.13 49.96 0 0 309.13 -49.96 0zm-30.07 -271.01l0 -38.12 80.02 0 0 38.12 -80.02 0zm231.22 277.79c-26.81,0 -47.42,-8.69 -61.81,-26.04 -14.4,-17.37 -21.61,-42.98 -21.61,-76.87l0 -132.12 49.56 0 0 138.9c0,15.81 4.37,28.3 13.12,37.48 8.76,9.17 20.6,13.77 35.57,13.77 15.23,0 27.75,-4.87 37.48,-14.6 9.73,-9.76 14.6,-23.09 14.6,-40.03l0 -135.52 49.56 0 0 228.25 -39.39 0 0 -97.4 5.09 0c0,22.88 -3.04,42 -9.12,57.37 -6.05,15.4 -14.96,27.04 -26.67,34.96 -11.72,7.89 -26.47,11.85 -44.25,11.85l-2.12 0zm283.75 -4.23c-18.93,0 -34.87,-2.55 -47.88,-7.62 -12.98,-5.09 -22.79,-13.85 -29.42,-26.27 -6.62,-12.41 -9.94,-29.22 -9.94,-50.39l0 -213 47.01 0 0 217.23c0,11.87 3.16,20.97 9.53,27.31 6.35,6.37 15.3,9.53 26.88,9.53l38.12 0 0 43.21 -34.29 0zm-124.95 -193.97l0 -36.83 159.24 0 0 36.83 -159.24 0zm224.04 191.42l0 -228.25 49.53 0 0 228.25 -49.53 0zm-33.48 -190.14l0 -38.11 83.01 0 0 38.11 -83.01 0zm49.56 -69.86c-10.16,0 -17.71,-2.68 -22.65,-8.05 -4.93,-5.36 -7.41,-12.28 -7.41,-20.76 0,-8.19 2.48,-15.03 7.41,-20.54 4.94,-5.5 12.49,-8.25 22.65,-8.25 10.43,0 18.15,2.75 23.09,8.25 4.93,5.5 7.41,12.34 7.41,20.54 0,8.48 -2.48,15.39 -7.41,20.76 -4.94,5.37 -12.65,8.05 -23.09,8.05zm214.29 267.63c-20.05,0 -37.71,-3.32 -52.94,-9.94 -15.23,-6.64 -28.09,-15.46 -38.55,-26.47 -10.43,-11.01 -18.35,-23.52 -23.7,-37.48 -5.36,-13.99 -8.04,-28.45 -8.04,-43.41l0 -8.47c0,-14.96 2.75,-29.51 8.25,-43.62 5.5,-14.12 13.56,-26.74 24.13,-37.91 10.59,-11.14 23.51,-19.96 38.75,-26.47 15.23,-6.48 32.61,-9.73 52.1,-9.73 19.47,0 36.75,3.25 51.88,9.73 15.1,6.51 28.02,15.33 38.73,26.47 10.73,11.17 18.85,23.79 24.35,37.91 5.5,14.11 8.25,28.66 8.25,43.62l0 8.47c0,14.96 -2.68,29.42 -8.05,43.41 -5.34,13.96 -13.26,26.47 -23.69,37.48 -10.46,11.01 -23.29,19.83 -38.55,26.47 -15.23,6.62 -32.89,9.94 -52.92,9.94zm0 -43.19c15.51,0 28.79,-3.45 39.8,-10.36 11.01,-6.94 19.4,-16.31 25.21,-28.18 5.77,-11.85 8.69,-25.13 8.69,-39.81 0,-14.96 -2.98,-28.38 -8.9,-40.23 -5.93,-11.85 -14.42,-21.24 -25.43,-28.16 -11.01,-6.91 -24.13,-10.38 -39.36,-10.38 -15.26,0 -28.38,3.47 -39.38,10.38 -11.01,6.92 -19.49,16.31 -25.41,28.16 -5.93,11.85 -8.92,25.27 -8.92,40.23 0,14.67 2.91,27.96 8.69,39.81 5.8,11.87 14.2,21.24 25.21,28.18 11.01,6.91 24.28,10.36 39.82,10.36zm179.96 35.57l0 -228.25 39.38 0 0 97.83 -4.66 0c0,-22.58 3.04,-41.63 9.12,-57.17 6.08,-15.53 15.3,-27.31 27.73,-35.37 12.43,-8.04 27.81,-12.07 46.16,-12.07l2.11 0c28.25,0 49.27,8.89 63.11,26.67 13.83,17.8 20.74,43.78 20.74,77.94l0 130.42 -49.55 0 0 -137.2c0,-15.81 -4.51,-28.58 -13.54,-38.32 -9.05,-9.75 -21.47,-14.62 -37.28,-14.62 -16.1,0 -29.08,5.03 -38.95,15.03 -9.89,10.03 -14.83,23.36 -14.83,40.03l0 135.08 -49.55 0zm351.5 6.78c-30.78,0 -54.7,-6.51 -71.78,-19.49 -17.08,-12.98 -26.06,-30.9 -26.9,-53.75l45.73 0c0.57,8.46 4.96,16.21 13.14,23.29 8.19,7.05 21.59,10.57 40.24,10.57 15.81,0 28.22,-3.09 37.25,-9.31 9.03,-6.23 13.56,-13.98 13.56,-23.31 0,-8.46 -3.32,-15.16 -9.96,-20.1 -6.62,-4.93 -17.85,-8.25 -33.66,-9.96l-22.44 -2.11c-23.43,-2.55 -41.99,-9.47 -55.67,-20.75 -13.72,-11.3 -20.56,-26.54 -20.56,-45.73 0,-15.26 3.82,-28.11 11.44,-38.55 7.62,-10.43 18.15,-18.49 31.54,-24.13 13.42,-5.66 28.88,-8.48 46.37,-8.48 27.1,0 48.98,6.01 65.65,18.01 16.65,11.99 25.27,29.56 25.84,52.72l-45.33 0c-0.57,-8.76 -4.66,-16.11 -12.28,-22.01 -7.62,-5.93 -18.92,-8.9 -33.88,-8.9 -14.1,0 -24.9,2.82 -32.39,8.47 -7.48,5.63 -11.24,12.84 -11.24,21.6 0,7.89 2.84,14.12 8.49,18.63 5.63,4.53 14.82,7.48 27.51,8.89l22.44 2.12c25.7,2.82 46.1,9.96 61.21,21.4 15.09,11.42 22.64,27.31 22.64,47.65 0,14.66 -4.09,27.51 -12.28,38.52 -8.18,11.01 -19.55,19.56 -34.08,25.63 -14.54,6.06 -31.41,9.1 -50.6,9.1z"/>
  </g>
 </g>
</svg>
